<svg id="enld6ebiufzm1" xmlns="http://www.w3.org/2000/svg" xmlns:xlink="http://www.w3.org/1999/xlink" viewBox="0 0 174.620000 196.330000" shape-rendering="geometricPrecision" text-rendering="geometricPrecision" width="174.620000" height="196.330000"><style><![CDATA[#enld6ebiufzm4 {animation: enld6ebiufzm4_f_o 2000ms linear 1 normal forwards}@keyframes enld6ebiufzm4_f_o { 0% {fill-opacity: 0} 20% {fill-opacity: 0;animation-timing-function: cubic-bezier(0.785000,0.135000,0.150000,0.860000)} 35% {fill-opacity: 1} 100% {fill-opacity: 1} }#enld6ebiufzm5 {animation: enld6ebiufzm5_f_o 2000ms linear 1 normal forwards}@keyframes enld6ebiufzm5_f_o { 0% {fill-opacity: 0} 25% {fill-opacity: 0;animation-timing-function: cubic-bezier(0.785000,0.135000,0.150000,0.860000)} 40% {fill-opacity: 1} 100% {fill-opacity: 1} }#enld6ebiufzm6 {animation: enld6ebiufzm6_f_o 2000ms linear 1 normal forwards}@keyframes enld6ebiufzm6_f_o { 0% {fill-opacity: 0} 30% {fill-opacity: 0;animation-timing-function: cubic-bezier(0.785000,0.135000,0.150000,0.860000)} 45% {fill-opacity: 1} 100% {fill-opacity: 1} }#enld6ebiufzm7 {animation: enld6ebiufzm7_f_o 2000ms linear 1 normal forwards}@keyframes enld6ebiufzm7_f_o { 0% {fill-opacity: 0} 35% {fill-opacity: 0;animation-timing-function: cubic-bezier(0.785000,0.135000,0.150000,0.860000)} 50% {fill-opacity: 1} 100% {fill-opacity: 1} }#enld6ebiufzm8 {animation: enld6ebiufzm8_f_o 2000ms linear 1 normal forwards}@keyframes enld6ebiufzm8_f_o { 0% {fill-opacity: 0} 40% {fill-opacity: 0;animation-timing-function: cubic-bezier(0.785000,0.135000,0.150000,0.860000)} 55% {fill-opacity: 1} 100% {fill-opacity: 1} }#enld6ebiufzm9 {animation: enld6ebiufzm9_f_o 2000ms linear 1 normal forwards}@keyframes enld6ebiufzm9_f_o { 0% {fill-opacity: 0} 45% {fill-opacity: 0;animation-timing-function: cubic-bezier(0.785000,0.135000,0.150000,0.860000)} 60% {fill-opacity: 1} 100% {fill-opacity: 1} }#enld6ebiufzm10 {animation: enld6ebiufzm10_f_o 2000ms linear 1 normal forwards}@keyframes enld6ebiufzm10_f_o { 0% {fill-opacity: 0} 50% {fill-opacity: 0;animation-timing-function: cubic-bezier(0.785000,0.135000,0.150000,0.860000)} 65% {fill-opacity: 1} 100% {fill-opacity: 1} }#enld6ebiufzm11 {animation: enld6ebiufzm11_f_o 2000ms linear 1 normal forwards}@keyframes enld6ebiufzm11_f_o { 0% {fill-opacity: 0} 55% {fill-opacity: 0;animation-timing-function: cubic-bezier(0.785000,0.135000,0.150000,0.860000)} 70% {fill-opacity: 1} 100% {fill-opacity: 1} }#enld6ebiufzm12 {animation: enld6ebiufzm12_f_o 2000ms linear 1 normal forwards}@keyframes enld6ebiufzm12_f_o { 0% {fill-opacity: 0} 60% {fill-opacity: 0;animation-timing-function: cubic-bezier(0.785000,0.135000,0.150000,0.860000)} 75% {fill-opacity: 1} 100% {fill-opacity: 1} }#enld6ebiufzm13 {animation: enld6ebiufzm13_f_o 2000ms linear 1 normal forwards}@keyframes enld6ebiufzm13_f_o { 0% {fill-opacity: 0} 65% {fill-opacity: 0;animation-timing-function: cubic-bezier(0.785000,0.135000,0.150000,0.860000)} 80% {fill-opacity: 1} 100% {fill-opacity: 1} }#enld6ebiufzm14 {animation: enld6ebiufzm14_f_o 2000ms linear 1 normal forwards}@keyframes enld6ebiufzm14_f_o { 0% {fill-opacity: 0} 70% {fill-opacity: 0;animation-timing-function: cubic-bezier(0.785000,0.135000,0.150000,0.860000)} 85% {fill-opacity: 1} 100% {fill-opacity: 1} }#enld6ebiufzm15 {animation: enld6ebiufzm15_f_o 2000ms linear 1 normal forwards}@keyframes enld6ebiufzm15_f_o { 0% {fill-opacity: 0} 75% {fill-opacity: 0;animation-timing-function: cubic-bezier(0.785000,0.135000,0.150000,0.860000)} 90% {fill-opacity: 1} 100% {fill-opacity: 1} }#enld6ebiufzm16 {animation: enld6ebiufzm16_f_o 2000ms linear 1 normal forwards}@keyframes enld6ebiufzm16_f_o { 0% {fill-opacity: 0} 80% {fill-opacity: 0;animation-timing-function: cubic-bezier(0.785000,0.135000,0.150000,0.860000)} 95% {fill-opacity: 1} 100% {fill-opacity: 1} }#enld6ebiufzm17 {animation: enld6ebiufzm17_f_o 2000ms linear 1 normal forwards}@keyframes enld6ebiufzm17_f_o { 0% {fill-opacity: 0} 85% {fill-opacity: 0;animation-timing-function: cubic-bezier(0.785000,0.135000,0.150000,0.860000)} 100% {fill-opacity: 1} }#enld6ebiufzm18_ts {animation: enld6ebiufzm18_ts__ts 2000ms linear 1 normal forwards}@keyframes enld6ebiufzm18_ts__ts { 0% {transform: translate(88.455002px,84.925003px) scale(0,0);animation-timing-function: cubic-bezier(1,-0.085000,0,1.450000)} 55% {transform: translate(88.455002px,84.925003px) scale(1,1)} 100% {transform: translate(88.455002px,84.925003px) scale(1,1)} }#enld6ebiufzm21 {
           animation-name: enld6ebiufzm21_f_o, enld6ebiufzm21_s_o;
           animation-duration: 2000ms;
           animation-fill-mode: forwards;
           animation-timing-function: linear;
           animation-direction: normal;
           animation-iteration-count: 1;  
        }@keyframes enld6ebiufzm21_f_o { 0% {fill-opacity: 1} 10% {fill-opacity: 1;animation-timing-function: cubic-bezier(0.175000,0.885000,0.320000,1.275000)} 55% {fill-opacity: 0} 100% {fill-opacity: 0} }@keyframes enld6ebiufzm21_s_o { 0% {stroke-opacity: 0} 10% {stroke-opacity: 0;animation-timing-function: cubic-bezier(0.175000,0.885000,0.320000,1.275000)} 55% {stroke-opacity: 1} 100% {stroke-opacity: 1} }]]></style><g id="enld6ebiufzm2"><g id="enld6ebiufzm3"><path id="enld6ebiufzm4" d="M10.140000,178.570000L10.140000,190.470000L0,196.330000L0,178.570000ZM7.890000,180.820000L2.250000,180.820000L2.250000,192.410000L7.890000,189.160000Z" fill="rgb(255,255,255)" fill-opacity="0" stroke="none" stroke-width="1" stroke-dasharray="0"/><path id="enld6ebiufzm5" d="M12.390000,178.570000L14.650000,178.570000L14.650000,185.330000L20.280000,185.330000L20.280000,178.570000L22.530000,178.570000L22.530000,187.570000L18.590000,187.570000L18.590000,194.330000L16.330000,194.330000L16.330000,187.570000L12.390000,187.570000Z" fill="rgb(255,255,255)" fill-opacity="0" stroke="none" stroke-width="1"/><path id="enld6ebiufzm6" d="M27,180.820000L27,194.340000L24.790000,194.340000L24.790000,178.570000L34.920000,178.570000L34.920000,194.340000L32.670000,194.340000L32.670000,180.820000Z" fill="rgb(255,255,255)" fill-opacity="0" stroke="none" stroke-width="1"/><path id="enld6ebiufzm7" d="M37.180000,178.570000L47.320000,178.570000L47.320000,194.340000L45.060000,194.340000L45.060000,187.580000L39.430000,187.580000L39.430000,194.340000L37.180000,194.340000ZM39.430000,180.820000L39.430000,185.330000L45.060000,185.330000L45.060000,180.820000Z" fill="rgb(255,255,255)" fill-opacity="0" stroke="none" stroke-width="1"/><path id="enld6ebiufzm8" d="M51.820000,180.820000L51.820000,194.340000L49.570000,194.340000L49.570000,178.570000L59.710000,178.570000L59.710000,194.340000L57.460000,194.340000L57.460000,180.820000L55.770000,180.820000L55.770000,194.340000L53.510000,194.340000L53.510000,180.820000Z" fill="rgb(255,255,255)" fill-opacity="0" stroke="none" stroke-width="1"/><path id="enld6ebiufzm9" d="M62,194.340000L62,192.090000L65.950000,192.090000L65.950000,180.820000L62,180.820000L62,178.570000L72.100000,178.570000L72.100000,180.820000L68.160000,180.820000L68.160000,192.090000L72.100000,192.090000L72.100000,194.340000Z" fill="rgb(255,255,255)" fill-opacity="0" stroke="none" stroke-width="1"/><path id="enld6ebiufzm10" d="M84.500000,178.570000L84.500000,180.820000L76.610000,180.820000L76.610000,192.090000L84.500000,192.090000L84.500000,194.340000L74.360000,194.340000L74.360000,178.570000Z" fill="rgb(255,255,255)" fill-opacity="0" stroke="none" stroke-width="1"/><path id="enld6ebiufzm11" d="M100.270000,178.570000L100.270000,184.830000L96.160000,187.210000L100.270000,194.340000L97.650000,194.340000L94.200000,188.340000L92.380000,189.340000L92.380000,194.340000L90.130000,194.340000L90.130000,178.570000ZM98,180.820000L92.380000,180.820000L92.380000,186.820000L98,183.530000Z" fill="rgb(255,255,255)" fill-opacity="0" stroke="none" stroke-width="1"/><path id="enld6ebiufzm12" d="M102.520000,178.570000L104.770000,178.570000L104.770000,192.090000L110.410000,192.090000L110.410000,178.570000L112.660000,178.570000L112.660000,194.340000L102.520000,194.340000Z" fill="rgb(255,255,255)" fill-opacity="0" stroke="none" stroke-width="1"/><path id="enld6ebiufzm13" d="M117.170000,180.820000L117.170000,194.340000L114.910000,194.340000L114.910000,178.570000L125.050000,178.570000L125.050000,194.340000L122.800000,194.340000L122.800000,180.820000Z" fill="rgb(255,255,255)" fill-opacity="0" stroke="none" stroke-width="1"/><path id="enld6ebiufzm14" d="M129.560000,180.820000L129.560000,194.340000L127.310000,194.340000L127.310000,178.570000L137.450000,178.570000L137.450000,194.340000L135.190000,194.340000L135.190000,180.820000Z" fill="rgb(255,255,255)" fill-opacity="0" stroke="none" stroke-width="1"/><path id="enld6ebiufzm15" d="M149.840000,178.570000L149.840000,180.820000L142,180.820000L142,185.330000L147.630000,185.330000L147.630000,187.580000L142,187.580000L142,192.090000L149.890000,192.090000L149.890000,194.340000L139.700000,194.340000L139.700000,178.570000Z" fill="rgb(255,255,255)" fill-opacity="0" stroke="none" stroke-width="1"/><path id="enld6ebiufzm16" d="M162.230000,178.570000L162.230000,184.830000L158.120000,187.210000L162.230000,194.340000L159.620000,194.340000L156.160000,188.340000L154.340000,189.340000L154.340000,194.340000L152.090000,194.340000L152.090000,178.570000ZM160,180.820000L154.360000,180.820000L154.360000,186.820000L160,183.580000Z" fill="rgb(255,255,255)" fill-opacity="0" stroke="none" stroke-width="1"/><path id="enld6ebiufzm17" d="M174.620000,178.570000L174.620000,180.820000L166.740000,180.820000L166.740000,183.530000L174.620000,188.080000L174.620000,194.340000L164.480000,194.340000L164.480000,192.090000L172.370000,192.090000L172.370000,189.390000L164.480000,184.830000L164.480000,178.570000Z" fill="rgb(255,255,255)" fill-opacity="0" stroke="none" stroke-width="1"/><g id="enld6ebiufzm18_ts" transform="translate(88.455002,84.925003) scale(0,0)"><g id="enld6ebiufzm18" transform="translate(-88.455002,-84.925003)"><path id="enld6ebiufzm19" d="M91.200000,24.140000L91.200000,145.710000L91.360000,145.610000L91.780000,144.890000L91.780000,145.370000L98.240000,141.640000L98.240000,141.640000L105.850000,137.250000L106.100000,137.100000L106.100000,102.930000L113,99L129.750000,123.500000L142.550000,116.110000L142.550000,115.820000L125.910000,91.500000L142.520000,81.910000L142.520000,53.770000ZM127.340000,73.470000L106.100000,85.730000L106.100000,49.730000L127.340000,62Z" fill="rgb(255,255,255)" stroke="none" stroke-width="1"/><path id="enld6ebiufzm20" d="M85.670000,145.460000L85.670000,24.140000L34.360000,53.770000L34.360000,116.080000ZM48.920000,62.330000L70.770000,49.710000L70.770000,119.650000L48.920000,107Z" fill="rgb(255,255,255)" stroke="none" stroke-width="1"/></g></g><polygon id="enld6ebiufzm21" points="22.530000,8.080000 88.440000,8.080000 154.340000,8.080000 154.360000,160 87.310000,160 22.530000,160 22.530000,8.080000" fill="rgb(255,255,255)" stroke="rgb(255,255,255)" stroke-width="14" stroke-opacity="0" stroke-miterlimit="10"/></g></g></svg>